<svg width="42" height="42" viewBox="0 0 42 42" fill="none" xmlns="http://www.w3.org/2000/svg">
<g id="Frame">
<g id="SVGRepo_iconCarrier">
<path id="Vector" d="M26.25 22.75H15.75" stroke="black" stroke-opacity="0.5" stroke-width="1.5" stroke-linecap="round"/>
<path id="Vector_2" d="M21 17.5V28" stroke="black" stroke-opacity="0.5" stroke-width="1.5" stroke-linecap="round"/>
<path id="Vector_3" d="M17.1111 36.75H24.8889C30.3508 36.75 33.0816 36.75 35.0434 35.4631C35.8925 34.9059 36.6217 34.1899 37.1892 33.3562C38.5 31.4302 38.5 28.7488 38.5 23.3863C38.5 18.0239 38.5 15.3426 37.1892 13.4166C36.6217 12.5827 35.8925 11.8668 35.0434 11.3097C33.7827 10.4827 32.2047 10.1872 29.7885 10.0815C28.6354 10.0815 27.6428 9.22369 27.4167 8.11363C27.0774 6.44856 25.5883 5.25 23.859 5.25H18.141C16.4116 5.25 14.9225 6.44856 14.5833 8.11363C14.3572 9.22369 13.3645 10.0815 12.2115 10.0815C9.79533 10.1872 8.21721 10.4827 6.95667 11.3097C6.10741 11.8668 5.37824 12.5827 4.81079 13.4166C3.5 15.3426 3.5 18.0239 3.5 23.3863C3.5 28.7488 3.5 31.4302 4.81079 33.3562C5.37824 34.1899 6.10741 34.9059 6.95667 35.4631C8.91842 36.75 11.6493 36.75 17.1111 36.75Z" stroke="black" stroke-opacity="0.5" stroke-width="1.5"/>
<path id="Vector_4" d="M33.25 17.5H31.5" stroke="black" stroke-opacity="0.5" stroke-width="1.5" stroke-linecap="round"/>
</g>
</g>
</svg>
